<?xml version="1.0" encoding="iso-8859-1"?>
<!-- Generator: Adobe Illustrator 19.0.0, SVG Export Plug-In . SVG Version: 6.00 Build 0)  -->
<svg version="1.1" id="Capa_1" xmlns="http://www.w3.org/2000/svg" xmlns:xlink="http://www.w3.org/1999/xlink" x="0px" y="0px"
	 viewBox="0 0 512 512" style="enable-background:#FFFFFF;" xml:space="preserve">
<g>
	<g>
		<path d="M432.433,306.68c-13.476-13.6-32.65-19.516-51.292-15.828c-8.398,1.661-17.157,2.504-26.036,2.504
			c-23.8,0-46.072-5.97-62.713-16.812c-15.633-10.186-24.242-23.394-24.242-37.192c0-19.754,18.437-38.545,46.972-47.872
			c3.991-1.305,6.168-5.597,4.864-9.588c-1.304-3.991-5.595-6.169-9.588-4.864c-35.439,11.583-57.453,35.465-57.453,62.324
			c0,19.112,11.061,36.844,31.147,49.931c19.079,12.431,44.298,19.277,71.012,19.277c9.867,0,19.619-0.94,28.987-2.794
			c13.629-2.696,27.662,1.647,37.544,11.618c9.858,9.946,14.066,23.98,11.256,37.541c-0.14,0.676-0.281,1.273-0.42,1.776
			c-11.844,43.102-38.822,80.949-75.964,106.57c-3.456,2.384-4.326,7.119-1.942,10.574c1.475,2.139,3.85,3.286,6.265,3.286
			c1.488,0,2.992-0.436,4.309-1.345c40.084-27.649,69.203-68.51,81.992-115.056c0.224-0.814,0.442-1.73,0.648-2.723
			C451.625,339.443,445.889,320.256,432.433,306.68z"/>
	</g>
</g>
<g>
	<g>
		<path d="M342.61,480.863c-1.853-3.766-6.409-5.316-10.177-3.461c-26.065,12.833-54.026,19.359-83.107,19.394
			c-0.082,0-0.161,0-0.242,0c-51.223,0-99.251-20.066-135.256-56.517c-36.055-36.502-55.529-84.883-54.833-136.231
			c0.669-49.345,20.367-95.958,55.466-131.252c35.1-35.296,81.602-55.248,130.938-56.182c24.897-0.468,49.158,3.789,72.131,12.659
			c3.916,1.511,8.318-0.437,9.83-4.353c1.512-3.917-0.437-8.318-4.353-9.83c-24.821-9.584-51.039-14.182-77.895-13.677
			c-53.304,1.009-103.533,22.552-141.432,60.662c-37.897,38.108-59.166,88.455-59.889,141.767
			c-0.751,55.451,20.279,107.699,59.219,147.121c38.887,39.368,90.748,61.039,146.071,61.037c0.084,0,0.177,0,0.263,0
			c31.424-0.039,61.638-7.09,89.804-20.958C342.915,489.187,344.464,484.631,342.61,480.863z"/>
	</g>
</g>
<g>
	<g>
		<path d="M179.362,162.505c-19.991,0-36.256,16.264-36.256,36.256s16.264,36.256,36.256,36.256s36.256-16.264,36.256-36.256
			C215.617,178.769,199.353,162.505,179.362,162.505z M179.362,219.812c-11.608,0-21.052-9.444-21.052-21.052
			c0-11.608,9.444-21.052,21.052-21.052s21.052,9.444,21.052,21.052C200.413,210.368,190.97,219.812,179.362,219.812z"/>
	</g>
</g>
<g>
	<g>
		<path d="M125.876,250.375c-19.991,0-36.256,16.264-36.256,36.256s16.264,36.256,36.256,36.256s36.256-16.264,36.256-36.256
			S145.867,250.375,125.876,250.375z M125.876,307.682c-11.608,0-21.052-9.444-21.052-21.052s9.444-21.052,21.052-21.052
			s21.052,9.444,21.052,21.052S137.484,307.682,125.876,307.682z"/>
	</g>
</g>
<g>
	<g>
		<path d="M160.259,347.797c-19.992,0-36.256,16.264-36.256,36.256c0,19.991,16.264,36.256,36.256,36.256
			s36.257-16.264,36.257-36.256C196.516,364.062,180.252,347.797,160.259,347.797z M160.259,405.104
			c-11.609,0-21.052-9.444-21.052-21.052s9.444-21.052,21.052-21.052s21.053,9.444,21.053,21.052S171.868,405.104,160.259,405.104z"
			/>
	</g>
</g>
<g>
	<g>
		<path d="M249.086,396.509c-19.991,0-36.256,16.264-36.256,36.256c0,19.991,16.264,36.256,36.256,36.256
			c19.991,0,36.256-16.264,36.256-36.256C285.342,412.773,269.078,396.509,249.086,396.509z M249.086,453.815
			c-11.608,0-21.052-9.444-21.052-21.052c0-11.608,9.444-21.052,21.052-21.052c11.608,0,21.051,9.444,21.051,21.052
			C270.138,444.372,260.694,453.815,249.086,453.815z"/>
	</g>
</g>
<g>
	<g>
		<path d="M343.643,347.797c-19.992,0-36.256,16.264-36.256,36.256c0,19.991,16.264,36.256,36.256,36.256
			c19.991,0,36.257-16.264,36.257-36.256S363.636,347.797,343.643,347.797z M343.643,405.104c-11.608,0-21.052-9.444-21.052-21.052
			c0-11.608,9.444-21.052,21.052-21.052c11.608,0,21.052,9.444,21.052,21.052C364.696,395.661,355.251,405.104,343.643,405.104z"/>
	</g>
</g>
<g>
	<g>
		<path d="M465.867,67.203c-0.636-4.15-4.518-7-8.665-6.363c-4.15,0.635-6.999,4.516-6.363,8.665
			c7.536,49.189-3.916,78.664-34.021,87.678l-13.867-5.674l21.534-33.483c2.271-3.531,1.249-8.236-2.282-10.506
			c-3.529-2.271-8.236-1.25-10.506,2.282l-23.057,35.852l-6.875-2.813l8.69-41.731c0.857-4.11-1.782-8.136-5.892-8.992
			c-4.109-0.857-8.136,1.782-8.992,5.893l-8.116,38.975l-11.388-4.66c-7.652-8.692-10.416-20.411-7.76-33.198
			c3.647-17.554,16.693-32.979,34.049-40.255c27.9-11.698,46.426-21.231,57.59-34.009c1.626,4.961,3.457,10.973,5.217,17.664
			c1.069,4.06,5.23,6.485,9.286,5.418c4.06-1.068,6.486-5.226,5.418-9.287c-5.156-19.597-10.77-33.364-11.007-33.94
			C447.689,1.863,444.91,0,441.826,0c-0.001,0-0.002,0-0.003,0c-3.085,0.001-5.864,1.868-7.032,4.723
			c-5.862,14.326-20.032,24.077-58.314,40.128c-21.908,9.185-38.406,28.797-43.057,51.184c-3.408,16.409,0.077,32.267,9.534,44.277
			l-43.783,123.815c-1.4,3.958,0.674,8.301,4.632,9.701s8.301-0.675,9.701-4.632l5.161-14.594l39.93,16.338l-3.915,8.383
			c-1.777,3.804-0.133,8.328,3.671,10.105c1.04,0.485,2.135,0.716,3.211,0.716c2.861,0,5.602-1.624,6.892-4.387l53.328-114.192
			c20.907-6.412,34.967-20.514,41.797-41.993C468.883,112.897,469.652,91.913,465.867,67.203z M365.035,257.148L323.74,240.25
			l32.351-91.487l13.922,5.696c0.001,0,0.002,0.001,0.004,0.001l36.079,14.763L365.035,257.148z"/>
	</g>
</g>
<g>
</g>
<g>
</g>
<g>
</g>
<g>
</g>
<g>
</g>
<g>
</g>
<g>
</g>
<g>
</g>
<g>
</g>
<g>
</g>
<g>
</g>
<g>
</g>
<g>
</g>
<g>
</g>
<g>
</g>
</svg>
